<svg width="1222" height="1179" viewBox="0 0 1222 1179" fill="none" xmlns="http://www.w3.org/2000/svg">
<g filter="url(#filter0_f_833_182)">
<path d="M389.869 279.487L440.316 247.668L493.812 221.95L549.401 202.793L606.091 190.539L662.872 185.405L718.729 187.485L772.667 196.74L821.037 212.15C822.825 212.72 824.569 213.417 826.256 214.238L868.357 234.714C870.106 235.564 871.788 236.544 873.39 237.646L911.134 263.587C912.781 264.719 914.338 265.975 915.792 267.346L948.615 298.279C950.093 299.671 951.459 301.177 952.702 302.782L980.126 338.195C981.373 339.806 982.493 341.512 983.473 343.297L1005.09 382.646C1006.06 384.414 1006.89 386.255 1007.58 388.152L1023.03 430.848C1023.7 432.704 1024.23 434.607 1024.61 436.543L1033.6 481.935C1033.97 483.81 1034.21 485.71 1034.3 487.619L1036.73 537.739L1031.71 591.651L1019.19 645.527L999.38 698.405L972.644 749.341L939.457 797.426L900.411 841.802L856.203 881.678L807.622 916.342L755.534 945.175L700.87 967.662L644.605 983.403L587.742 992.117L531.297 993.647L476.277 987.967L423.663 975.178L377.061 956.573C375.286 955.864 373.565 955.026 371.913 954.065L331.913 930.8C330.208 929.807 328.58 928.687 327.044 927.449L291.695 898.95C290.125 897.684 288.655 896.298 287.299 894.804L257.121 861.565C255.751 860.057 254.502 858.444 253.385 856.741L228.818 819.289C227.705 817.591 226.725 815.809 225.889 813.959L207.315 772.859C206.492 771.039 205.811 769.157 205.276 767.232L193.023 723.102C192.503 721.229 192.123 719.319 191.888 717.389L186.22 670.917C185.993 669.055 185.9 667.179 185.943 665.303L187.105 614.551L195.898 560.536L212.101 507.04L235.425 455.017L265.454 405.395L301.651 359.061L343.371 316.84L389.869 279.487Z" fill="#6623E3"/>
</g>
<defs>
<filter id="filter0_f_833_182" x="0.933105" y="0.405436" width="1220.8" height="1178.24" filterUnits="userSpaceOnUse" color-interpolation-filters="sRGB">
<feFlood flood-opacity="0" result="BackgroundImageFix"/>
<feBlend mode="normal" in="SourceGraphic" in2="BackgroundImageFix" result="shape"/>
<feGaussianBlur stdDeviation="92.5" result="effect1_foregroundBlur_833_182"/>
</filter>
</defs>
</svg>
